<svg width="84" height="75" viewBox="0 0 84 75" fill="none" xmlns="http://www.w3.org/2000/svg">
<rect width="84" height="75" fill="#E5E5E5"/>
<g clip-path="url(#clip0_0_1)">
<rect width="1920" height="3665" transform="translate(-1100 -2878)" fill="#F7F5F9"/>
<rect x="1" y="1" width="82" height="73" rx="4" stroke="#C4C4C4" stroke-width="2"/>
<path d="M37.3363 38.5C40.8208 35.0945 44.1201 31.8942 47.3731 28.7233C48.2669 27.8521 48.1987 26.3467 47.3094 25.4708C46.4416 24.616 45.1195 24.6861 44.2516 25.5409C40.0632 29.6664 35.8616 33.8047 31.7233 37.8808C31.3256 38.2725 31.3255 38.9137 31.7233 39.3053C35.7097 43.2293 39.8623 47.2984 43.9949 51.3844C44.8955 52.2748 46.2685 52.3485 47.1445 51.4338C47.9987 50.5419 48.0517 49.0479 47.1744 48.1785C44.0758 45.1078 40.8095 41.8945 37.3363 38.5Z" fill="#928F94"/>
</g>
<defs>
<clipPath id="clip0_0_1">
<rect width="1920" height="3665" fill="white" transform="translate(-1100 -2878)"/>
</clipPath>
</defs>
</svg>
